<svg xmlns="http://www.w3.org/2000/svg" viewBox="0 0 1920 1080" preserveAspectRatio="xMidYMid slice">
  <defs>
    <linearGradient id="bgGrad" x1="0%" y1="0%" x2="100%" y2="100%">
      <stop offset="0%" style="stop-color:#105f57;stop-opacity:1" />
      <stop offset="100%" style="stop-color:#0d4842;stop-opacity:1" />
    </linearGradient>
  </defs>
  
  <rect width="1920" height="1080" fill="url(#bgGrad)"/>
  
  <g opacity="0.1">
    <circle cx="200" cy="150" r="80" fill="#fff"/>
    <circle cx="1720" cy="930" r="100" fill="#fff"/>
    <circle cx="960" cy="300" r="60" fill="#fff"/>
    <circle cx="1600" cy="200" r="70" fill="#fff"/>
  </g>
  
  <g transform="translate(960, 540)">
    <g transform="translate(-150, -150)">
      <rect x="50" y="0" width="200" height="280" rx="8" fill="#fff" opacity="0.2"/>
      <rect x="60" y="10" width="180" height="240" fill="#105f57"/>
      <rect x="75" y="30" width="150" height="8" rx="2" fill="#fff" opacity="0.5"/>
      <rect x="75" y="50" width="140" height="6" rx="1" fill="#fff" opacity="0.3"/>
      <rect x="75" y="65" width="130" height="6" rx="1" fill="#fff" opacity="0.3"/>
      <rect x="75" y="80" width="145" height="6" rx="1" fill="#fff" opacity="0.3"/>
      
      <rect x="75" y="110" width="150" height="4" rx="1" fill="#6ee7b7" opacity="0.6"/>
      <rect x="75" y="120" width="140" height="4" rx="1" fill="#6ee7b7" opacity="0.4"/>
      <rect x="75" y="130" width="135" height="4" rx="1" fill="#6ee7b7" opacity="0.4"/>
      
      <circle cx="150" cy="200" r="35" fill="#6ee7b7" opacity="0.3"/>
      <path d="M 135 195 L 145 205 L 165 185" stroke="#fff" stroke-width="3" fill="none" stroke-linecap="round"/>
    </g>
  </g>
  
  <text x="960" y="900" font-family="system-ui, -apple-system, sans-serif" font-size="48" fill="#fff" text-anchor="middle" opacity="0.9">
    Veridian
  </text>
  <text x="960" y="950" font-family="system-ui, -apple-system, sans-serif" font-size="24" fill="#6ee7b7" text-anchor="middle" opacity="0.8">
    Sistema de Biblioteca Online
  </text>
</svg>
